<svg width="27" height="12" viewBox="0 0 27 12" fill="none" xmlns="http://www.w3.org/2000/svg">
<path d="M0.84 0.659999H5.74V2.354H3.346V5.21H5.432V6.96H3.346V12H0.84V0.659999ZM6.91031 0.659999H10.0323C11.2736 0.659999 12.2116 0.879333 12.8463 1.318C13.481 1.75667 13.7983 2.536 13.7983 3.656C13.7983 4.412 13.7003 5.014 13.5043 5.462C13.3083 5.91 12.9443 6.26 12.4123 6.512L13.9663 12H11.3763L10.1303 6.918H9.41631V12H6.91031V0.659999ZM10.1163 5.476C10.6203 5.476 10.9703 5.34533 11.1663 5.084C11.3716 4.81333 11.4743 4.412 11.4743 3.88C11.4743 3.36667 11.381 2.984 11.1943 2.732C11.0076 2.47067 10.6856 2.34 10.2283 2.34H9.41631V5.476H10.1163ZM15.3048 0.659999H20.4008V2.368H17.8108V5.182H19.7848V6.918H17.8108V10.306H20.4288V12H15.3048V0.659999ZM21.5666 0.659999H26.6626V2.368H24.0726V5.182H26.0466V6.918H24.0726V10.306H26.6906V12H21.5666V0.659999Z" fill="#FE6E02"/>
</svg>
