<?xml version="1.0" encoding="utf-8"?>
<!-- Generator: Adobe Illustrator 23.1.0, SVG Export Plug-In . SVG Version: 6.00 Build 0)  -->
<svg version="1.1" id="Слой_1" xmlns="http://www.w3.org/2000/svg" xmlns:xlink="http://www.w3.org/1999/xlink" x="0px" y="0px"
	 viewBox="0 0 97 44" style="enable-background:new 0 0 97 44;" xml:space="preserve">
<style type="text/css">
	.st0{fill:#E33333;}
	.st1{fill:#FFFFFF;}
</style>
<path class="st0" d="M22,0h53c12.2,0,22,9.8,22,22l0,0c0,12.2-9.8,22-22,22H22C9.8,44,0,34.2,0,22l0,0C0,9.8,9.8,0,22,0z"/>
<g>
	<path class="st1" d="M30.1,14.7l2.6,3.8l2.6-3.8h3.4l-4.2,6l4.5,6.6h-3.4l-2.9-4.2l-2.9,4.2h-3.4l4.5-6.4l-4.2-6.2H30.1z"/>
	<path class="st1" d="M40.5,14.7h2.9v8.2l6-8.2h2.7v12.6h-2.9v-8.2l-6,8.2h-2.8V14.7z"/>
	<path class="st1" d="M64.9,17h-4v10.2H58V17h-4v-2.4h10.9V17z"/>
	<path class="st1" d="M66.9,26.9c-0.3-0.3-0.5-0.7-0.5-1.2c0-0.5,0.2-0.8,0.5-1.1s0.7-0.5,1.2-0.5s0.9,0.2,1.2,0.5
		c0.3,0.3,0.5,0.7,0.5,1.1c0,0.5-0.2,0.8-0.5,1.2c-0.3,0.3-0.7,0.5-1.2,0.5S67.2,27.2,66.9,26.9z M66.4,14.7h3.3l-0.6,8.2H67
		L66.4,14.7z"/>
</g>
</svg>
